# xmcd
#
# Track frame offsets:
#	150
#	16197
#	41189
#	56589
#	81943
#	99522
#	118781
#	138266
#	170602
#	195056
#	207456
#	235766
#	252293
#
# Disc length: 3643 seconds
#
# Revision: 0
# Processed by: cddbd v1.5.2PL0 Copyright (c) Steve Scherf et al.
# Submitted via: dBpowerAMP V4.0
#
DISCID=ab0e390d
DTITLE=Benoît Blue Boy - Funky Aloo
DYEAR=2010
DGENRE=Blues
TTITLE0=Josephine
TTITLE1=Funky Aloo
TTITLE2=PCV (Les Matins Comme Ca)
TTITLE3=Donne Moi Ton Bras
TTITLE4=Parlez-Vous Français ?
TTITLE5=Je Suis Bête De t'Aimer
TTITLE6=Fous Tes Merdes A La Poubelle
TTITLE7=Louisiana
TTITLE8=Je Vais Me Casser d'Ici
TTITLE9=Le Voodoo Twist
TTITLE10=Plus Tard Dans La Soirée
TTITLE11=Dimanche A Saint Ouen
TTITLE12=Reste Pas Là
EXTD=Benît Blue Boy and Freddie Roulette and Les Tortilleurs
EXTT0=
EXTT1=
EXTT2=
EXTT3=
EXTT4=
EXTT5=
EXTT6=
EXTT7=
EXTT8=
EXTT9=
EXTT10=
EXTT11=
EXTT12=
PLAYORDER=
